<svg width="3649" height="4892" viewBox="0 0 3649 4892" fill="none" xmlns="http://www.w3.org/2000/svg">
<g clip-path="url(#clip0_3319_3)">
<rect width="3649" height="4892" fill="white"/>
<path d="M2394 4877H3635V3841H3131.45L2394 4600.95V4877Z" fill="#D9D9D9" stroke="black" stroke-width="10"/>
<path d="M1354.5 4891.5V4609L564 3839H25V4891.5H1354.5Z" fill="#D9D9D9" stroke="black" stroke-width="10"/>
<path d="M548 3836.49V2781.89L802.452 2518.78V1959H2862.97V2518.78L3125 2799.21V3849.48L2389.8 4606.32V4890H1344.92V4606.32L548 3836.49Z" fill="#D9D9D9" stroke="black" stroke-width="10"/>
<path d="M533.5 2797L799 2524.5V2302.5H8.5V2797H533.5Z" fill="#D9D9D9" stroke="black" stroke-width="10"/>
<path d="M3649 2297V1957H2861V2297H3649Z" fill="#8D8D8F" stroke="black" stroke-width="10"/>
<path d="M795 2297V1957H7V2297H795Z" fill="#8D8D8F" stroke="black" stroke-width="10"/>
<path d="M3645 1949V568.504H3162.43V16.3051L477.207 0V542.416H0V1949H3645Z" fill="#D9D9D9" stroke="black" stroke-width="10"/>
<path d="M2856.89 2304.44L3642.45 2307.54L3640.55 2787.1L3125.74 2785.07L2856.03 2522.29L2856.89 2304.44Z" fill="#D9D9D9" stroke="black" stroke-width="10"/>
<path d="M1188 3558.31L1561.39 3960H2112.28L2490 3558.31V3022.36L2112.28 2625H1561.39L1188 3022.36V3558.31Z" fill="#D9D9D9" stroke="black" stroke-width="10"/>
<circle cx="3414.5" cy="4631.5" r="54.5" fill="#FF0000"/>
<circle cx="472.5" cy="4617.5" r="54.5" fill="#FF0000"/>
<circle cx="447.5" cy="4372.5" r="54.5" fill="#FF0000"/>
<circle cx="449.5" cy="4127.5" r="54.5" fill="#FF0000"/>
<circle cx="185.5" cy="4127.5" r="54.5" fill="#FF0000"/>
<circle cx="188.5" cy="4372.5" r="54.5" fill="#FF0000"/>
<circle cx="190.5" cy="4617.5" r="54.5" fill="#FF0000"/>
<circle cx="3414.5" cy="4343.5" r="54.5" fill="#FF0000"/>
<circle cx="3413.5" cy="4056.5" r="54.5" fill="#FF0000"/>
<circle cx="3479" cy="4560" r="41" fill="#FF0000"/>
<circle cx="537" cy="4546" r="41" fill="#FF0000"/>
<circle cx="512" cy="4301" r="41" fill="#FF0000"/>
<circle cx="514" cy="4056" r="41" fill="#FF0000"/>
<circle cx="1037" cy="3937" r="41" fill="#FF0000"/>
<circle cx="725" cy="3931" r="41" fill="#FF0000"/>
<circle cx="1066" cy="4263" r="41" fill="#FF0000"/>
<circle cx="792" cy="3997" r="41" fill="#FF0000"/>
<circle cx="1133" cy="4329" r="41" fill="#FF0000"/>
<circle cx="709" cy="3715" r="41" fill="#FF0000"/>
<circle cx="2954" cy="3711" r="41" fill="#FF0000"/>
<circle cx="2633" cy="3932" r="41" fill="#FF0000"/>
<circle cx="2570" cy="4348" r="41" fill="#FF0000"/>
<circle cx="2898" cy="4011" r="41" fill="#FF0000"/>
<circle cx="854" cy="3464" r="41" fill="#FF0000"/>
<circle cx="2814" cy="3461" r="41" fill="#FF0000"/>
<circle cx="2474" cy="4093" r="41" fill="#FF0000"/>
<circle cx="2632" cy="4284" r="41" fill="#FF0000"/>
<circle cx="2960" cy="3947" r="41" fill="#FF0000"/>
<circle cx="850" cy="3233" r="41" fill="#FF0000"/>
<circle cx="2810" cy="3230" r="41" fill="#FF0000"/>
<circle cx="609" cy="3617" r="41" fill="#FF0000"/>
<circle cx="3066" cy="3618" r="41" fill="#FF0000"/>
<circle cx="596" cy="3136" r="41" fill="#FF0000"/>
<circle cx="3053" cy="3137" r="41" fill="#FF0000"/>
<circle cx="609" cy="3527" r="41" fill="#FF0000"/>
<circle cx="3066" cy="3528" r="41" fill="#FF0000"/>
<circle cx="596" cy="3046" r="41" fill="#FF0000"/>
<circle cx="3053" cy="3047" r="41" fill="#FF0000"/>
<circle cx="694" cy="2949" r="41" fill="#FF0000"/>
<circle cx="87" cy="1767" r="41" fill="#FF0000"/>
<circle cx="3459" cy="1772" r="41" fill="#FF0000"/>
<circle cx="87" cy="1530" r="41" fill="#FF0000"/>
<circle cx="3459" cy="1535" r="41" fill="#FF0000"/>
<circle cx="81" cy="1287" r="41" fill="#FF0000"/>
<circle cx="3453" cy="1292" r="41" fill="#FF0000"/>
<circle cx="79" cy="1043" r="41" fill="#FF0000"/>
<circle cx="3451" cy="1048" r="41" fill="#FF0000"/>
<circle cx="75" cy="792" r="41" fill="#FF0000"/>
<circle cx="3447" cy="797" r="41" fill="#FF0000"/>
<circle cx="3283" cy="814" r="41" fill="#FF0000"/>
<circle cx="3283" cy="1291" r="41" fill="#FF0000"/>
<circle cx="3283" cy="1044" r="41" fill="#FF0000"/>
<circle cx="3286" cy="1523" r="41" fill="#FF0000"/>
<circle cx="586" cy="509" r="41" fill="#FF0000"/>
<circle cx="588" cy="196" r="41" fill="#FF0000"/>
<circle cx="825" cy="509" r="41" fill="#FF0000"/>
<circle cx="827" cy="196" r="41" fill="#FF0000"/>
<circle cx="1064" cy="509" r="41" fill="#FF0000"/>
<circle cx="1066" cy="196" r="41" fill="#FF0000"/>
<circle cx="2243" cy="514" r="41" fill="#FF0000"/>
<circle cx="2245" cy="201" r="41" fill="#FF0000"/>
<circle cx="1536" cy="513" r="41" fill="#FF0000"/>
<circle cx="1536" cy="866" r="41" fill="#FF0000"/>
<circle cx="1537" cy="1357" r="41" fill="#FF0000"/>
<circle cx="2011" cy="1360" r="41" fill="#FF0000"/>
<circle cx="1780" cy="1360" r="41" fill="#FF0000"/>
<circle cx="1776" cy="1579" r="41" fill="#FF0000"/>
<circle cx="1774" cy="867" r="41" fill="#FF0000"/>
<circle cx="2007" cy="867" r="41" fill="#FF0000"/>
<circle cx="1536" cy="1044" r="41" fill="#FF0000"/>
<circle cx="1537" cy="1535" r="41" fill="#FF0000"/>
<circle cx="2011" cy="1538" r="41" fill="#FF0000"/>
<circle cx="1774" cy="1045" r="41" fill="#FF0000"/>
<circle cx="2007" cy="1045" r="41" fill="#FF0000"/>
<circle cx="1538" cy="200" r="41" fill="#FF0000"/>
<circle cx="2715" cy="518" r="41" fill="#FF0000"/>
<circle cx="2717" cy="205" r="41" fill="#FF0000"/>
<circle cx="1296" cy="509" r="41" fill="#FF0000"/>
<circle cx="1298" cy="196" r="41" fill="#FF0000"/>
<circle cx="2475" cy="514" r="41" fill="#FF0000"/>
<circle cx="2477" cy="201" r="41" fill="#FF0000"/>
<circle cx="1768" cy="513" r="41" fill="#FF0000"/>
<circle cx="1770" cy="200" r="41" fill="#FF0000"/>
<circle cx="2012" cy="514" r="41" fill="#FF0000"/>
<circle cx="2014" cy="201" r="41" fill="#FF0000"/>
<circle cx="2947" cy="518" r="41" fill="#FF0000"/>
<circle cx="2949" cy="205" r="41" fill="#FF0000"/>
<circle cx="87" cy="1678" r="41" fill="#FF0000"/>
<circle cx="3459" cy="1683" r="41" fill="#FF0000"/>
<circle cx="87" cy="1441" r="41" fill="#FF0000"/>
<circle cx="3459" cy="1446" r="41" fill="#FF0000"/>
<circle cx="81" cy="1198" r="41" fill="#FF0000"/>
<circle cx="3453" cy="1203" r="41" fill="#FF0000"/>
<circle cx="79" cy="954" r="41" fill="#FF0000"/>
<circle cx="3451" cy="959" r="41" fill="#FF0000"/>
<circle cx="75" cy="704" r="41" fill="#FF0000"/>
<circle cx="3447" cy="709" r="41" fill="#FF0000"/>
<circle cx="3283" cy="726" r="41" fill="#FF0000"/>
<circle cx="3283" cy="1203" r="41" fill="#FF0000"/>
<circle cx="3283" cy="956" r="41" fill="#FF0000"/>
<circle cx="3286" cy="1435" r="41" fill="#FF0000"/>
<circle cx="586" cy="421" r="41" fill="#FF0000"/>
<circle cx="588" cy="108" r="41" fill="#FF0000"/>
<circle cx="825" cy="421" r="41" fill="#FF0000"/>
<circle cx="827" cy="108" r="41" fill="#FF0000"/>
<circle cx="1064" cy="421" r="41" fill="#FF0000"/>
<circle cx="1066" cy="108" r="41" fill="#FF0000"/>
<circle cx="2243" cy="426" r="41" fill="#FF0000"/>
<circle cx="2245" cy="113" r="41" fill="#FF0000"/>
<circle cx="1536" cy="425" r="41" fill="#FF0000"/>
<circle cx="1536" cy="778" r="41" fill="#FF0000"/>
<circle cx="1774" cy="779" r="41" fill="#FF0000"/>
<circle cx="2007" cy="779" r="41" fill="#FF0000"/>
<circle cx="1536" cy="956" r="41" fill="#FF0000"/>
<circle cx="1537" cy="1447" r="41" fill="#FF0000"/>
<circle cx="2011" cy="1450" r="41" fill="#FF0000"/>
<circle cx="1780" cy="1450" r="41" fill="#FF0000"/>
<circle cx="1776" cy="1669" r="41" fill="#FF0000"/>
<circle cx="1774" cy="957" r="41" fill="#FF0000"/>
<circle cx="2007" cy="957" r="41" fill="#FF0000"/>
<circle cx="1538" cy="112" r="41" fill="#FF0000"/>
<circle cx="2715" cy="430" r="41" fill="#FF0000"/>
<circle cx="2717" cy="117" r="41" fill="#FF0000"/>
<circle cx="1296" cy="421" r="41" fill="#FF0000"/>
<circle cx="1298" cy="108" r="41" fill="#FF0000"/>
<circle cx="2475" cy="426" r="41" fill="#FF0000"/>
<circle cx="2477" cy="113" r="41" fill="#FF0000"/>
<circle cx="1768" cy="425" r="41" fill="#FF0000"/>
<circle cx="1770" cy="112" r="41" fill="#FF0000"/>
<circle cx="2012" cy="426" r="41" fill="#FF0000"/>
<circle cx="2014" cy="113" r="41" fill="#FF0000"/>
<circle cx="2947" cy="430" r="41" fill="#FF0000"/>
<circle cx="2949" cy="117" r="41" fill="#FF0000"/>
<circle cx="181" cy="1767" r="41" fill="#FF0000"/>
<circle cx="3553" cy="1772" r="41" fill="#FF0000"/>
<circle cx="181" cy="1530" r="41" fill="#FF0000"/>
<circle cx="3553" cy="1535" r="41" fill="#FF0000"/>
<circle cx="175" cy="1287" r="41" fill="#FF0000"/>
<circle cx="3547" cy="1292" r="41" fill="#FF0000"/>
<circle cx="173" cy="1043" r="41" fill="#FF0000"/>
<circle cx="3545" cy="1048" r="41" fill="#FF0000"/>
<circle cx="169" cy="792" r="41" fill="#FF0000"/>
<circle cx="3541" cy="797" r="41" fill="#FF0000"/>
<circle cx="680" cy="509" r="41" fill="#FF0000"/>
<circle cx="682" cy="196" r="41" fill="#FF0000"/>
<circle cx="919" cy="509" r="41" fill="#FF0000"/>
<circle cx="921" cy="196" r="41" fill="#FF0000"/>
<circle cx="1158" cy="509" r="41" fill="#FF0000"/>
<circle cx="1160" cy="196" r="41" fill="#FF0000"/>
<circle cx="2337" cy="514" r="41" fill="#FF0000"/>
<circle cx="2339" cy="201" r="41" fill="#FF0000"/>
<circle cx="1630" cy="513" r="41" fill="#FF0000"/>
<circle cx="1630" cy="866" r="41" fill="#FF0000"/>
<circle cx="1631" cy="1357" r="41" fill="#FF0000"/>
<circle cx="2105" cy="1360" r="41" fill="#FF0000"/>
<circle cx="1874" cy="1360" r="41" fill="#FF0000"/>
<circle cx="1870" cy="1579" r="41" fill="#FF0000"/>
<circle cx="1868" cy="867" r="41" fill="#FF0000"/>
<circle cx="2101" cy="867" r="41" fill="#FF0000"/>
<circle cx="1630" cy="1044" r="41" fill="#FF0000"/>
<circle cx="1631" cy="1535" r="41" fill="#FF0000"/>
<circle cx="2105" cy="1538" r="41" fill="#FF0000"/>
<circle cx="1868" cy="1045" r="41" fill="#FF0000"/>
<circle cx="2101" cy="1045" r="41" fill="#FF0000"/>
<circle cx="1632" cy="200" r="41" fill="#FF0000"/>
<circle cx="2809" cy="518" r="41" fill="#FF0000"/>
<circle cx="2811" cy="205" r="41" fill="#FF0000"/>
<circle cx="1390" cy="509" r="41" fill="#FF0000"/>
<circle cx="1392" cy="196" r="41" fill="#FF0000"/>
<circle cx="2569" cy="514" r="41" fill="#FF0000"/>
<circle cx="2571" cy="201" r="41" fill="#FF0000"/>
<circle cx="1862" cy="513" r="41" fill="#FF0000"/>
<circle cx="1864" cy="200" r="41" fill="#FF0000"/>
<circle cx="2106" cy="514" r="41" fill="#FF0000"/>
<circle cx="2108" cy="201" r="41" fill="#FF0000"/>
<circle cx="3041" cy="518" r="41" fill="#FF0000"/>
<circle cx="3043" cy="205" r="41" fill="#FF0000"/>
<circle cx="344" cy="800" r="41" fill="#FF0000"/>
<circle cx="345" cy="1042" r="41" fill="#FF0000"/>
<circle cx="346" cy="1286" r="41" fill="#FF0000"/>
<circle cx="353" cy="1529" r="41" fill="#FF0000"/>
<circle cx="181" cy="1678" r="41" fill="#FF0000"/>
<circle cx="3553" cy="1683" r="41" fill="#FF0000"/>
<circle cx="181" cy="1441" r="41" fill="#FF0000"/>
<circle cx="3553" cy="1446" r="41" fill="#FF0000"/>
<circle cx="175" cy="1198" r="41" fill="#FF0000"/>
<circle cx="3547" cy="1203" r="41" fill="#FF0000"/>
<circle cx="173" cy="954" r="41" fill="#FF0000"/>
<circle cx="3545" cy="959" r="41" fill="#FF0000"/>
<circle cx="169" cy="703" r="41" fill="#FF0000"/>
<circle cx="3541" cy="708" r="41" fill="#FF0000"/>
<circle cx="680" cy="420" r="41" fill="#FF0000"/>
<circle cx="682" cy="107" r="41" fill="#FF0000"/>
<circle cx="919" cy="420" r="41" fill="#FF0000"/>
<circle cx="921" cy="107" r="41" fill="#FF0000"/>
<circle cx="1158" cy="420" r="41" fill="#FF0000"/>
<circle cx="1160" cy="107" r="41" fill="#FF0000"/>
<circle cx="2337" cy="425" r="41" fill="#FF0000"/>
<circle cx="2339" cy="112" r="41" fill="#FF0000"/>
<circle cx="1630" cy="424" r="41" fill="#FF0000"/>
<circle cx="1630" cy="777" r="41" fill="#FF0000"/>
<circle cx="1868" cy="778" r="41" fill="#FF0000"/>
<circle cx="2101" cy="778" r="41" fill="#FF0000"/>
<circle cx="1630" cy="955" r="41" fill="#FF0000"/>
<circle cx="1631" cy="1446" r="41" fill="#FF0000"/>
<circle cx="2105" cy="1449" r="41" fill="#FF0000"/>
<circle cx="1874" cy="1449" r="41" fill="#FF0000"/>
<circle cx="1870" cy="1668" r="41" fill="#FF0000"/>
<circle cx="1868" cy="956" r="41" fill="#FF0000"/>
<circle cx="2101" cy="956" r="41" fill="#FF0000"/>
<circle cx="1632" cy="111" r="41" fill="#FF0000"/>
<circle cx="2809" cy="429" r="41" fill="#FF0000"/>
<circle cx="2811" cy="116" r="41" fill="#FF0000"/>
<circle cx="1390" cy="420" r="41" fill="#FF0000"/>
<circle cx="1392" cy="107" r="41" fill="#FF0000"/>
<circle cx="2569" cy="425" r="41" fill="#FF0000"/>
<circle cx="2571" cy="112" r="41" fill="#FF0000"/>
<circle cx="1862" cy="424" r="41" fill="#FF0000"/>
<circle cx="1864" cy="111" r="41" fill="#FF0000"/>
<circle cx="2106" cy="425" r="41" fill="#FF0000"/>
<circle cx="2108" cy="112" r="41" fill="#FF0000"/>
<circle cx="3041" cy="429" r="41" fill="#FF0000"/>
<circle cx="3043" cy="116" r="41" fill="#FF0000"/>
<circle cx="344" cy="710" r="41" fill="#FF0000"/>
<circle cx="345" cy="953" r="41" fill="#FF0000"/>
<circle cx="346" cy="1197" r="41" fill="#FF0000"/>
<circle cx="353" cy="1440" r="41" fill="#FF0000"/>
<circle cx="2954" cy="2952" r="41" fill="#FF0000"/>
<circle cx="1199" cy="4099" r="41" fill="#FF0000"/>
<circle cx="250" cy="4056" r="41" fill="#FF0000"/>
<circle cx="253" cy="4301" r="41" fill="#FF0000"/>
<circle cx="255" cy="4546" r="41" fill="#FF0000"/>
<circle cx="3479" cy="4272" r="41" fill="#FF0000"/>
<circle cx="3478" cy="3985" r="41" fill="#FF0000"/>
<circle cx="3479" cy="4703" r="41" fill="#FF0000"/>
<circle cx="537" cy="4689" r="41" fill="#FF0000"/>
<circle cx="512" cy="4444" r="41" fill="#FF0000"/>
<circle cx="514" cy="4199" r="41" fill="#FF0000"/>
<circle cx="250" cy="4199" r="41" fill="#FF0000"/>
<circle cx="253" cy="4444" r="41" fill="#FF0000"/>
<circle cx="255" cy="4689" r="41" fill="#FF0000"/>
<circle cx="3479" cy="4415" r="41" fill="#FF0000"/>
<circle cx="3478" cy="4128" r="41" fill="#FF0000"/>
<circle cx="3347" cy="4560" r="41" fill="#FF0000"/>
<circle cx="405" cy="4546" r="41" fill="#FF0000"/>
<circle cx="380" cy="4301" r="41" fill="#FF0000"/>
<circle cx="382" cy="4056" r="41" fill="#FF0000"/>
<circle cx="118" cy="4056" r="41" fill="#FF0000"/>
<circle cx="121" cy="4301" r="41" fill="#FF0000"/>
<circle cx="123" cy="4546" r="41" fill="#FF0000"/>
<circle cx="3347" cy="4272" r="41" fill="#FF0000"/>
<circle cx="3346" cy="3985" r="41" fill="#FF0000"/>
<circle cx="3101" cy="3947" r="41" fill="#FF0000"/>
<circle cx="2932" cy="4122" r="41" fill="#FF0000"/>
<circle cx="2763" cy="4297" r="41" fill="#FF0000"/>
<circle cx="2590" cy="4472" r="41" fill="#FF0000"/>
<circle cx="3174" cy="4014" r="41" fill="#FF0000"/>
<circle cx="3001" cy="4190" r="41" fill="#FF0000"/>
<circle cx="2831" cy="4362" r="41" fill="#FF0000"/>
<circle cx="2659" cy="4540" r="41" fill="#FF0000"/>
<circle cx="3003" cy="4048" r="41" fill="#FF0000"/>
<circle cx="2831" cy="4226" r="41" fill="#FF0000"/>
<circle cx="2663" cy="4400" r="41" fill="#FF0000"/>
<circle cx="2487" cy="4573" r="41" fill="#FF0000"/>
<circle cx="3071" cy="4117" r="41" fill="#FF0000"/>
<circle cx="2897" cy="4293" r="41" fill="#FF0000"/>
<circle cx="2730" cy="4468" r="41" fill="#FF0000"/>
<circle cx="2551" cy="4641" r="41" fill="#FF0000"/>
<circle cx="3347" cy="4699" r="41" fill="#FF0000"/>
<circle cx="405" cy="4685" r="41" fill="#FF0000"/>
<circle cx="380" cy="4440" r="41" fill="#FF0000"/>
<circle cx="382" cy="4195" r="41" fill="#FF0000"/>
<circle cx="118" cy="4195" r="41" fill="#FF0000"/>
<circle cx="121" cy="4440" r="41" fill="#FF0000"/>
<circle cx="123" cy="4685" r="41" fill="#FF0000"/>
<circle cx="3347" cy="4411" r="41" fill="#FF0000"/>
<circle cx="3346" cy="4124" r="41" fill="#FF0000"/>
<line x1="3022.73" y1="3979.2" x2="3145.73" y2="4097.2" stroke="black" stroke-width="5"/>
<line x1="2849.73" y1="4148.2" x2="2972.73" y2="4266.2" stroke="black" stroke-width="5"/>
<line x1="2678.73" y1="4325.2" x2="2801.73" y2="4443.2" stroke="black" stroke-width="5"/>
<line x1="2506.73" y1="4498.2" x2="2629.73" y2="4616.2" stroke="black" stroke-width="5"/>
<line x1="1079.78" y1="3981.24" x2="1153.78" y2="4056.24" stroke="black" stroke-width="5"/>
<line x1="705.5" y1="3521" x2="705.5" y2="3624" stroke="black" stroke-width="5"/>
<line x1="2956.5" y1="3517" x2="2956.5" y2="3620" stroke="black" stroke-width="5"/>
<line x1="849.5" y1="3297" x2="849.5" y2="3400" stroke="black" stroke-width="5"/>
<line x1="2809.5" y1="3294" x2="2809.5" y2="3397" stroke="black" stroke-width="5"/>
<line x1="692.5" y1="3040" x2="692.5" y2="3143" stroke="black" stroke-width="5"/>
<line x1="2952.5" y1="3043" x2="2952.5" y2="3146" stroke="black" stroke-width="5"/>
<line x1="2591.77" y1="3974.77" x2="2516.77" y2="4049.77" stroke="black" stroke-width="5"/>
<line x1="491.5" y1="771.961" x2="496.5" y2="1095.96" stroke="black" stroke-width="5"/>
<line x1="1287.5" y1="774.961" x2="1292.5" y2="1098.96" stroke="black" stroke-width="5"/>
<line x1="2346.5" y1="783.961" x2="2351.5" y2="1107.96" stroke="black" stroke-width="5"/>
<line x1="3133.2" y1="785.961" x2="3138.2" y2="1109.96" stroke="black" stroke-width="5"/>
<line x1="656.005" y1="745.5" x2="1135.01" y2="746.508" stroke="black" stroke-width="5"/>
<line x1="2504.01" y1="755.5" x2="2983.01" y2="756.508" stroke="black" stroke-width="5"/>
<line x1="656.005" y1="935.5" x2="1135.01" y2="936.508" stroke="black" stroke-width="5"/>
<line x1="2501.01" y1="946.5" x2="2980.01" y2="947.508" stroke="black" stroke-width="5"/>
<line x1="633" y1="1529.5" x2="1159" y2="1529.5" stroke="black" stroke-width="5"/>
<line x1="2481" y1="1528.5" x2="3007" y2="1528.5" stroke="black" stroke-width="5"/>
<path d="M634.01 1126.5L1158.01 1128.5M634.5 1313.5L1158.5 1315.5" stroke="black" stroke-width="5"/>
<path d="M2481.71 1133L3005.71 1135M2482.2 1320L3006.2 1322" stroke="black" stroke-width="5"/>
<line x1="1292.5" y1="1264" x2="1292.5" y2="1497" stroke="black" stroke-width="5"/>
<line x1="2348.5" y1="1273" x2="2348.5" y2="1506" stroke="black" stroke-width="5"/>
<line x1="3137.5" y1="1273" x2="3137.5" y2="1506" stroke="black" stroke-width="5"/>
</g>
<defs>
<clipPath id="clip0_3319_3">
<rect width="3649" height="4892" fill="#fde4ea"/>
</clipPath>
</defs>
</svg>
